<?xml version="1.0" encoding="UTF-8" standalone="no"?>
<!DOCTYPE svg PUBLIC "-//W3C//DTD SVG 1.1//EN" "http://www.w3.org/Graphics/SVG/1.1/DTD/svg11.dtd">
<svg width="100%" height="100%" viewBox="0 0 800 800" version="1.1" xmlns="http://www.w3.org/2000/svg" xmlns:xlink="http://www.w3.org/1999/xlink" xml:space="preserve" xmlns:serif="http://www.serif.com/" style="fill-rule:evenodd;clip-rule:evenodd;stroke-linejoin:round;stroke-miterlimit:2;">
    <g transform="matrix(0.643593,0,0,0.643593,149.623,79.3682)">
        <g transform="matrix(1.0979,0,0,1.0979,39.6322,33.4675)">
            <g>
                <path d="M716.43,70.072L636.664,70.072L636.664,29.222C636.664,13.451 623.878,0.667 608.109,0.667C592.339,0.667 579.554,13.451 579.554,29.222L579.554,70.07L220.444,70.07L220.444,29.222C220.444,13.451 207.66,0.667 191.89,0.667C176.119,0.667 163.335,13.451 163.335,29.222L163.335,70.07L83.567,70.07C40.831,70.07 6.062,104.84 6.062,147.576L6.062,721.829C6.062,764.566 40.831,799.333 83.567,799.333L716.43,799.333C759.168,799.333 793.937,764.566 793.937,721.829L793.937,147.576C793.937,104.841 759.168,70.072 716.43,70.072ZM63.171,147.577C63.171,136.311 72.303,127.181 83.567,127.181L163.335,127.181L163.335,159.766C163.335,175.536 176.119,188.32 191.89,188.32C207.66,188.32 220.444,175.536 220.444,159.766L220.444,127.181L579.554,127.181L579.554,159.766C579.554,175.536 592.339,188.32 608.109,188.32C623.878,188.32 636.664,175.536 636.664,159.766L636.664,127.181L716.43,127.181C727.695,127.181 736.826,136.313 736.826,147.577L736.826,219.372L63.171,219.372L63.171,147.577ZM736.826,721.83C736.826,733.093 727.695,742.227 716.43,742.227L83.567,742.227C72.303,742.227 63.171,733.093 63.171,721.83L63.171,276.481L736.826,276.481L736.826,721.83Z" style="fill-rule:nonzero;"/>
                <path d="M716.43,799.999L83.567,799.999C40.463,799.999 5.395,764.931 5.395,721.829L5.395,147.576C5.395,104.472 40.463,69.404 83.567,69.404L162.667,69.404L162.667,29.222C162.667,13.109 175.775,0.001 191.888,0.001C208,0.001 221.109,13.109 221.109,29.222L221.109,69.404L578.888,69.404L578.888,29.222C578.888,13.109 591.996,0.001 608.109,0.001C624.222,0.001 637.33,13.109 637.33,29.222L637.33,69.405L716.43,69.405C759.536,69.405 794.604,104.473 794.604,147.577L794.604,721.83C794.604,764.933 759.536,799.999 716.43,799.999ZM83.567,70.737C41.198,70.737 6.728,105.206 6.728,147.576L6.728,721.829C6.728,764.197 41.198,798.666 83.567,798.666L716.43,798.666C758.8,798.666 793.271,764.198 793.271,721.829L793.271,147.576C793.271,105.206 758.801,70.737 716.43,70.737L635.997,70.737L635.997,29.222C635.997,13.843 623.486,1.334 608.109,1.334C592.732,1.334 580.221,13.845 580.221,29.222L580.221,70.737L219.778,70.737L219.778,29.222C219.778,13.843 207.267,1.334 191.89,1.334C176.511,1.334 164.001,13.845 164.001,29.222L164.001,70.737L83.567,70.737ZM716.43,742.893L83.567,742.893C71.953,742.893 62.504,733.444 62.504,721.829L62.504,275.815L737.493,275.815L737.493,721.83C737.493,733.445 728.044,742.893 716.43,742.893ZM63.837,277.148L63.837,721.83C63.837,732.709 72.688,741.561 83.567,741.561L716.43,741.561C727.308,741.561 736.16,732.709 736.16,721.83L736.16,277.148L63.837,277.148ZM737.493,220.038L62.504,220.038L62.504,147.577C62.504,135.963 71.953,126.514 83.567,126.514L164.001,126.514L164.001,159.766C164.001,175.143 176.512,187.654 191.89,187.654C207.267,187.654 219.778,175.143 219.778,159.766L219.778,126.514L580.221,126.514L580.221,159.766C580.221,175.143 592.732,187.654 608.109,187.654C623.486,187.654 635.997,175.143 635.997,159.766L635.997,126.514L716.43,126.514C728.044,126.514 737.493,135.963 737.493,147.577L737.493,220.038ZM63.837,218.705L736.16,218.705L736.16,147.577C736.16,136.698 727.308,127.847 716.43,127.847L637.33,127.847L637.33,159.766C637.33,175.879 624.222,188.987 608.109,188.987C591.996,188.987 578.888,175.879 578.888,159.766L578.888,127.847L221.111,127.847L221.111,159.766C221.111,175.879 208.003,188.987 191.89,188.987C175.777,188.987 162.668,175.879 162.668,159.766L162.668,127.847L83.567,127.847C72.688,127.847 63.837,136.698 63.837,147.577L63.837,218.705Z" style="fill-rule:nonzero;"/>
            </g>
        </g>
        <g transform="matrix(1.15551,0,0,1.23692,-189.884,215.232)">
            <g transform="matrix(455.761,0,0,455.761,795.051,421.288)">
            </g>
            <text x="389.806px" y="421.288px" style="font-family:'Arial-BoldMT', 'Arial', sans-serif;font-weight:700;font-size:455.761px;">m</text>
        </g>
    </g>
</svg>
